<svg width="44" height="44" viewBox="0 0 44 44" fill="none" xmlns="http://www.w3.org/2000/svg">
    <g clip-path="url(#hgs0kf2kda)" fill="#fff">
        <path d="M12.074 13.42V31.9h4.356v-5.86c0-1.602-.044-3.028-.132-4.278-.023-.41-.052-.82-.088-1.229l4.972 6.879h1.742l5.05-6.922c-.045.45-.082.901-.113 1.352a76.155 76.155 0 0 0-.106 4.197V31.9h4.356V13.42h-3.907l-6.098 8.75-6.02-8.75h-4.012z"/>
        <path fill-rule="evenodd" clip-rule="evenodd" d="M0 22C0 11.63 0 6.444 3.222 3.222 6.444 0 11.629 0 22 0c10.37 0 15.556 0 18.778 3.222C44 6.444 44 11.629 44 22c0 10.37 0 15.556-3.222 18.778C37.556 44 32.371 44 22 44c-10.37 0-15.556 0-18.778-3.222C0 37.556 0 32.371 0 22zm22 19.067c-5.268 0-8.925-.007-11.68-.377-2.67-.359-4.049-1.01-5.024-1.986-.975-.975-1.627-2.355-1.986-5.025-.37-2.754-.377-6.41-.377-11.679 0-5.268.007-8.925.377-11.68.359-2.67 1.01-4.049 1.986-5.024.975-.975 2.355-1.627 5.025-1.986 2.754-.37 6.41-.377 11.679-.377 5.268 0 8.925.007 11.68.377 2.67.359 4.049 1.01 5.024 1.986.975.975 1.627 2.355 1.986 5.025.37 2.754.377 6.41.377 11.679 0 5.268-.007 8.925-.377 11.68-.359 2.67-1.01 4.049-1.986 5.024-.975.975-2.355 1.627-5.025 1.986-2.754.37-6.41.377-11.679.377z"/>
    </g>
    <defs>
        <clipPath id="hgs0kf2kda">
            <path fill="#fff" d="M0 0h44v44H0z"/>
        </clipPath>
    </defs>
</svg>
